<svg id="Layer_5" enable-background="new 0 0 64 64" height="512" viewBox="0 0 64 64" width="512" xmlns="http://www.w3.org/2000/svg"><g><g><g><path d="m30 52c0 1.1.9 2 2 2h-6c1.1 0 2 .9 2 2 0 .55-.22 1.05-.59 1.41-.36.37-.86.59-1.41.59h-2c.55 0 1.05.22 1.41.59.37.36.59.86.59 1.41 0 1.1-.9 2-2 2h-12.79c-1.45 0-2.86-.39-4.1-1.14l-3.11-1.86h-2v-14h2l3.11-1.86c1.24-.75 2.65-1.14 4.1-1.14h8.79c.55 0 1 .45 1 1 0 1.66-1.34 3-3 3h8.25l.01-.01c1.07.89 2.34 1.52 3.74 1.81v2.2z" fill="#f0d0b4"/></g><g><path d="m46 6c-1.66 0-3-1.34-3-3 0-.55.45-1 1-1h8.79c1.45 0 2.86.39 4.1 1.14l3.11 1.86h2v14h-2l-3.11 1.86c-1.24.75-2.65 1.14-4.1 1.14h-12.26c-.99-2.92-3.48-5.15-6.53-5.8v-2.2-2c0-1.1-.9-2-2-2h6c-.55 0-1.05-.22-1.41-.59-.37-.36-.59-.86-.59-1.41 0-1.1.9-2 2-2z" fill="#f0d0b4"/></g><g><path d="m41 24.84v.16c0 1.1-.9 2-2 2s-2-.9-2-2v-.16c0-2.67-2.17-4.84-4.84-4.84h-.32c-2.67 0-4.84 2.17-4.84 4.84 0 2.15 1.44 4.06 3.51 4.65l4.08 1.17c3.77 1.08 6.41 4.57 6.41 8.5 0 2.12-.75 4.07-2 5.59-1.26 1.53-3 2.63-5 3.05v4.2c0 1.1-.9 2-2 2s-2-.9-2-2v-2-2.2c-1.4-.29-2.67-.92-3.74-1.81-1.99-1.61-3.26-4.07-3.26-6.83v-.16c0-1.1.9-2 2-2s2 .9 2 2v.16c0 2.67 2.17 4.84 4.84 4.84h.32c2.67 0 4.84-2.17 4.84-4.84 0-2.15-1.44-4.06-3.51-4.65l-4.08-1.17c-3.77-1.08-6.41-4.57-6.41-8.5 0-2.12.75-4.07 2-5.59 1.26-1.53 3-2.63 5-3.05v-4.2c0-1.1.9-2 2-2s2 .9 2 2v2 2.2c3.05.65 5.54 2.88 6.53 5.8.31.89.47 1.85.47 2.84z" fill="#fcd770"/></g></g><g><path d="m60.277 4-2.868-1.721c-1.395-.837-2.992-1.279-4.618-1.279h-8.791c-1.103 0-2 .897-2 2 0 .732.212 1.409.556 2h-4.556c-1.654 0-3 1.346-3 3 0 .352.072.686.184 1h-3.184c-1.654 0-3 1.346-3 3v3.421c-4.102 1.24-7 5.078-7 9.419 0 4.371 2.935 8.261 7.136 9.461l4.079 1.165c1.64.469 2.785 1.988 2.785 3.694 0 2.118-1.723 3.84-3.84 3.84h-.32c-2.117 0-3.84-1.723-3.84-3.84v-.16c0-1.654-1.346-3-3-3s-3 1.346-3 3v.16c0 2.157.717 4.189 1.94 5.84h-2.496c.344-.591.556-1.268.556-2 0-1.103-.897-2-2-2h-8.791c-1.626 0-3.223.442-4.619 1.279l-2.867 1.721h-2.723v16h2.723l2.868 1.721c1.395.837 2.992 1.279 4.618 1.279h12.791c1.654 0 3-1.346 3-3 0-.395-.081-.77-.22-1.116 1.275-.346 2.22-1.501 2.22-2.884 0-.352-.072-.686-.184-1h3.184c1.654 0 3-1.346 3-3v-3.421c4.102-1.24 7-5.078 7-9.419 0-4.371-2.935-8.261-7.136-9.461l-4.079-1.165c-1.64-.469-2.785-1.988-2.785-3.694 0-2.118 1.723-3.84 3.84-3.84h.319c2.118 0 3.84 1.723 3.84 3.84v.16c0 1.654 1.346 3 3 3s3-1.346 3-3v-.16c0-.627-.067-1.241-.183-1.84h10.973c1.626 0 3.223-.442 4.619-1.279l2.869-1.721h2.723v-16zm-33.277 52c0 .551-.449 1-1 1h-2-10v2h10c.551 0 1 .449 1 1s-.449 1-1 1h-12.791c-1.264 0-2.505-.344-3.589-.994l-3.343-2.006h-1.277v-12h1.277l3.343-2.006c1.084-.65 2.325-.994 3.589-.994h8.791c0 1.103-.897 2-2 2h-4-.414l-1.536 1.536c-.944.944-2.2 1.464-3.535 1.464h-1.515v2h1.515c1.87 0 3.627-.728 4.95-2.05l.95-.95h3.585 7.924c.912.692 1.946 1.237 3.076 1.579v.421h-15v2h15v1c0 .352.072.686.184 1h-3.184-12v2h12c.551 0 1 .449 1 1zm13-31c0 .551-.449 1-1 1s-1-.449-1-1v-.16c0-3.22-2.62-5.84-5.84-5.84h-.32c-3.22 0-5.84 2.62-5.84 5.84 0 2.594 1.742 4.904 4.235 5.616l4.079 1.165c3.348.957 5.686 4.056 5.686 7.539 0 3.677-2.611 6.901-6.208 7.667l-.792.168v5.005c0 .551-.449 1-1 1s-1-.449-1-1v-5.005l-.792-.168c-3.597-.766-6.208-3.99-6.208-7.667v-.16c0-.551.449-1 1-1s1 .449 1 1v.16c0 3.22 2.62 5.84 5.84 5.84h.319c3.22 0 5.84-2.62 5.84-5.84 0-2.594-1.742-4.904-4.235-5.616l-4.079-1.165c-3.347-.957-5.685-4.056-5.685-7.539 0-3.677 2.611-6.901 6.208-7.667l.792-.168v-5.005c0-.551.449-1 1-1s1 .449 1 1v5.005l.792.168c3.597.766 6.208 3.99 6.208 7.667zm21-7h-1.277l-3.343 2.006c-1.084.65-2.325.994-3.589.994h-11.581c-.305-.711-.692-1.382-1.149-2h9.939v-2h-11.924c-.912-.692-1.946-1.237-3.076-1.579v-.421h15v-2h-15v-1c0-.352-.072-.686-.184-1h3.184 12v-2h-12c-.551 0-1-.449-1-1s.449-1 1-1h8 3.586l.95.95c1.322 1.322 3.08 2.05 4.95 2.05h1.514v-2h-1.515c-1.335 0-2.591-.52-3.536-1.464l-1.535-1.536h-.414-4c-1.103 0-2-.897-2-2h8.791c1.264 0 2.505.344 3.589.994l3.343 2.006h1.277z"/><path d="m44 38h10v2h-10z"/><path d="m10 24h10v2h-10z"/><path d="m10.913 28.592h10v2h-10z" transform="matrix(.924 -.383 .383 .924 -10.116 8.346)"/><path d="m14.913 15.408h2v10h-2z" transform="matrix(.383 -.924 .924 .383 -9.031 27.299)"/><path d="m43.087 33.408h10v2h-10z" transform="matrix(.924 -.383 .383 .924 -9.509 21.029)"/><path d="m47.087 38.592h2v10h-2z" transform="matrix(.383 -.924 .924 .383 -10.59 71.335)"/></g></g></svg>