<svg id="Capa_1" enable-background="new 0 0 512 512" height="512" viewBox="0 0 512 512" width="512" xmlns="http://www.w3.org/2000/svg"><g><g><path d="m463.083 388.533h-414.166c-4.575 0-8.283-3.708-8.283-8.283v-344.617h430.733v344.617c0 4.575-3.709 8.283-8.284 8.283z" fill="#edf6ff"/><path d="m448.366 35.633v344.617c0 4.575-3.708 8.283-8.283 8.283h23c4.575 0 8.283-3.709 8.283-8.283v-344.617z" fill="#d8e2f3"/><path d="m371.967 73.767h-32.665c-9.065 0-16.804 7.083-17.029 16.145-.11 4.423 1.517 8.459 4.246 11.485 2.924 3.243 2.725 8.232-.363 11.319l-37.021 37.021-54.553-54.552c-6.47-6.469-16.959-6.469-23.428 0l-82.833 82.833c-6.47 6.469-6.47 16.959 0 23.428 3.235 3.235 7.474 4.853 11.714 4.853s8.48-1.618 11.714-4.853l71.119-71.118 54.553 54.551c6.47 6.469 16.959 6.469 23.428 0l48.736-48.736c3.088-3.088 8.077-3.287 11.319-.363 3.026 2.729 7.062 4.356 11.485 4.246 9.062-.225 16.146-7.964 16.146-17.029v-32.664c-.002-9.149-7.419-16.566-16.568-16.566z" fill="#c1e3a0"/><path d="m479.933 40.633h-447.866c-4.418 0-8-3.582-8-8v-17.133c0-4.418 3.582-8 8-8h447.867c4.418 0 8 3.582 8 8v17.133c-.001 4.419-3.583 8-8.001 8z" fill="#817d84"/><path d="m479.933 7.5h-23c4.418 0 8 3.582 8 8v17.133c0 4.418-3.582 8-8 8h23c4.418 0 8-3.582 8-8v-17.133c0-4.418-3.582-8-8-8z" fill="#756e79"/><path d="m231.433 289.085h-33.7c-4.418 0-8-3.582-8-8v-17.133c0-4.418 3.582-8 8-8h33.7c4.418 0 8 3.582 8 8v17.133c0 4.418-3.581 8-8 8z" fill="#c9dbfd"/><path d="m297.7 355.448h-99.967c-4.418 0-8-3.582-8-8v-17.133c0-4.418 3.582-8 8-8h99.967c4.418 0 8 3.582 8 8v17.133c0 4.418-3.582 8-8 8z" fill="#817d84"/><path d="m297.7 322.315h-23c4.418 0 8 3.582 8 8v17.133c0 4.418-3.582 8-8 8h23c4.418 0 8-3.582 8-8v-17.133c0-4.418-3.582-8-8-8z" fill="#756e79"/><path d="m231.433 255.952h-23c4.418 0 8 3.582 8 8v17.133c0 4.418-3.582 8-8 8h23c4.418 0 8-3.582 8-8v-17.133c0-4.419-3.582-8-8-8z" fill="#aecafc"/><g><g><path d="m173.167 496.209v-41.417c0-27.449-22.251-49.7-49.7-49.7h-66.267c-27.449 0-49.7 22.251-49.7 49.7v41.417c0 4.575 3.708 8.283 8.283 8.283h149.1c4.575 0 8.284-3.708 8.284-8.283z" fill="#e27f84"/></g><path d="m123.466 405.092h-23c27.449 0 49.7 22.251 49.7 49.7v41.417c0 4.575-3.708 8.283-8.283 8.283h23c4.575 0 8.283-3.708 8.283-8.283v-41.417c.001-27.448-22.251-49.7-49.7-49.7z" fill="#c9646d"/><g><path d="m80.2 376.441h20.267v43h-20.267z" fill="#f2cdbe"/><path d="m140.033 355.392c0 27.731-22.712 50.158-50.55 49.693-27.251-.455-48.85-23.257-48.85-50.511v-48.882c0-18.299 14.834-33.133 33.133-33.133h33.134c18.299 0 33.133 14.834 33.133 33.133z" fill="#f2cdbe"/><path d="m140.033 355.392c0 27.731-22.712 50.158-50.55 49.693-27.251-.455-48.85-23.257-48.85-50.511v-48.882c0-18.299 14.834-33.133 33.133-33.133h33.134c18.299 0 33.133 14.834 33.133 33.133z" fill="#f6e2c1"/><path d="m106.9 272.559h-23c18.299 0 33.133 14.834 33.133 33.133v49.7c0 23.466-16.265 43.13-38.135 48.343 3.404.817 6.942 1.289 10.586 1.35 27.837.465 50.549-21.962 50.549-49.693v-49.7c0-18.299-14.834-33.133-33.133-33.133z" fill="#f2d0ac"/></g><path d="m123.351 258.781c.077-.919.116-1.85.116-2.789 0-18.299-14.834-33.133-33.133-33.133s-33.134 14.834-33.134 33.133c0 .939.039 1.869.116 2.789v6.852h66.151z" fill="#ffe07d"/><path d="m123.466 255.992c0-18.299-14.834-33.133-33.133-33.133-4.044 0-7.917.727-11.5 2.053 12.63 4.675 21.633 16.825 21.633 31.08 0 .939-.039 1.869-.116 2.789l.116 6.852h23l-.116-6.852c.077-.919.116-1.85.116-2.789z" fill="#f1cb86"/><path d="m106.9 255.992h-33.133c-27.449 0-49.7 22.252-49.7 49.7v8.283c0 4.575 3.709 8.283 8.283 8.283h24.85c14.892 0 27.482-9.827 31.657-23.349.202-.654.792-1.11 1.477-1.11.685 0 1.275.456 1.477 1.11 4.174 13.521 16.765 23.349 31.657 23.349h24.85c4.575 0 8.283-3.709 8.283-8.283v-8.283c-.001-27.448-22.252-49.7-49.701-49.7z" fill="#ffe07d"/><path d="m106.9 255.992h-23c27.449 0 49.7 22.252 49.7 49.7v8.283c0 4.575-3.709 8.283-8.283 8.283h23c4.575 0 8.283-3.709 8.283-8.283v-8.283c0-27.448-22.251-49.7-49.7-49.7z" fill="#f1cb86"/><path d="m112.422 438.226-5.522 66.266h-33.133l-5.523-66.266v-33.134h44.178z" fill="#d8e2f3"/><g fill="#edf6ff"><path d="m128.984 439.182 11.047-31.251c-5.183-1.832-10.755-2.839-16.565-2.839h-33.133l23.949 35.924c3.786 5.678 12.428 4.6 14.702-1.834z"/><path d="m40.635 407.931 11.047 31.251c2.274 6.434 10.917 7.512 14.702 1.834l23.949-35.924h-33.133c-5.81 0-11.382 1.007-16.565 2.839z"/></g></g><g><path d="m411.533 367.033h20.267v43h-20.267z" fill="#f2cdbe"/><path d="m504.5 438.233c0-27.449-22.251-49.7-49.7-49.7h-66.267c-27.449 0-49.7 22.251-49.7 49.7v49.7c0 9.15 7.417 16.567 16.567 16.567h132.533c9.15 0 16.567-7.417 16.567-16.567z" fill="#c9dbfd"/><g><path d="m438.233 438.233 7.648 44.62c.389 3.113-1.014 6.179-3.625 7.92l-15.996 10.664c-2.782 1.855-6.407 1.855-9.189 0l-15.996-10.664c-2.61-1.74-4.014-4.806-3.625-7.92l7.648-44.62v-3.7h33.119z" fill="#e27f84"/></g><path d="m443.756 421.667-5.523 16.566h-33.133l-5.522-16.566v-33.134h44.178z" fill="#c9646d"/><path d="m471.367 265.641v73.192c0 27.731-22.712 50.158-50.55 49.693-27.251-.455-48.85-23.257-48.85-50.511v-72.374z" fill="#f6e2c1"/><path d="m448.367 265.641v73.192c0 23.466-16.265 43.13-38.135 48.343 3.404.817 6.942 1.289 10.586 1.35 27.837.465 50.55-21.962 50.55-49.693v-73.192z" fill="#f2d0ac"/><path d="m446.517 239.433h-49.7c-18.299 0-33.133 14.834-33.133 33.133v24.85c0 4.575 3.709 8.283 8.283 8.283 16.03 0 29.401-11.384 32.471-26.508.783-3.856 4.173-6.626 8.107-6.626h18.244c3.935 0 7.325 2.77 8.107 6.626 3.07 15.124 16.441 26.508 32.471 26.508 4.575 0 8.283-3.709 8.283-8.283v-24.85c0-18.298-14.834-33.133-33.133-33.133z" fill="#817d84"/><path d="m446.517 239.433h-23c18.299 0 33.133 14.834 33.133 33.133v24.85c0 1.546-.431 2.988-1.168 4.226 4.717 2.583 10.128 4.058 15.885 4.058 4.575 0 8.283-3.709 8.283-8.283v-24.85c0-18.299-14.834-33.134-33.133-33.134z" fill="#756e79"/><path d="m454.8 388.533h-23c27.448 0 49.7 22.251 49.7 49.7v49.7c0 9.15-7.417 16.567-16.567 16.567h23c9.15 0 16.567-7.417 16.567-16.567v-49.7c0-27.448-22.252-49.7-49.7-49.7z" fill="#aecafc"/><g fill="#edf6ff"><path d="m371.969 391.372 11.047 31.251c2.274 6.434 10.917 7.512 14.702 1.834l23.949-35.924h-33.133c-5.811 0-11.383 1.007-16.565 2.839z"/><path d="m454.8 388.533h-33.133l23.949 35.924c3.785 5.678 12.428 4.6 14.702-1.834l11.047-31.251c-5.183-1.832-10.755-2.839-16.565-2.839z"/></g></g></g><g><path d="m202.356 381.033h-61.196c4.062-7.955 6.373-16.951 6.373-26.451v-24.815h.784c8.703 0 15.783-7.08 15.783-15.783v-8.284c0-22.969-13.616-42.808-33.195-51.9-1.147-21.386-18.905-38.433-40.572-38.433s-39.425 17.047-40.572 38.433c-.548.254-1.09.518-1.628.789v-132.689c0-4.143-3.358-7.5-7.5-7.5s-7.5 3.357-7.5 7.5v143.588c-10.234 10.34-16.566 24.549-16.566 40.212v8.283c0 8.703 7.08 15.783 15.783 15.783h.783v25.01.624 24.85c0 8.703 7.08 15.783 15.783 15.783h1.165c.05.05.096.102.146.151.58.57 1.174 1.12 1.773 1.662-29.111 2.637-52 27.167-52 56.954v41.417c0 8.703 7.08 15.783 15.783 15.783h149.1c8.703 0 15.783-7.08 15.783-15.783v-41.417c0-29.908-23.077-54.512-52.357-56.98.642-.581 1.269-1.177 1.885-1.786h72.162c4.142 0 7.5-3.357 7.5-7.5s-3.358-7.501-7.5-7.501zm-98.009 31.567h19.12c2.304 0 4.563.193 6.768.55l-8.321 23.541c-.053.148-.162.456-.642.517-.479.062-.662-.212-.749-.343zm-44.203 24.264c-.087.131-.267.403-.749.343-.48-.06-.589-.368-.642-.517l-8.321-23.54c2.205-.357 4.464-.55 6.768-.55h19.12zm30.189-206.497c11.738 0 21.652 7.934 24.678 18.718-2.651-.378-5.357-.585-8.112-.585h-33.132c-2.754 0-5.46.207-8.111.585 3.026-10.784 12.939-18.718 24.677-18.718zm-58.766 83.616v-8.283c0-23.27 18.931-42.2 42.2-42.2h33.133c23.269 0 42.2 18.931 42.2 42.2v8.283c0 .432-.352.783-.783.783h-24.85c-14.134 0-25.633-11.499-25.633-25.634 0-4.143-3.358-7.5-7.5-7.5s-7.5 3.357-7.5 7.5c0 14.135-11.499 25.634-25.633 25.634h-24.851c-.432.001-.783-.351-.783-.783zm25.633 15.784c13.657 0 25.763-6.772 33.133-17.137 7.371 10.364 19.476 17.137 33.133 17.137h9.066v24.815c0 23.335-18.606 42.63-41.475 43.012-11.429.18-22.182-4.108-30.313-12.105-8.133-7.998-12.612-18.684-12.612-30.089v-.624-25.01h9.068zm-42.2 166.45v-41.417c0-15.666 8.587-29.355 21.295-36.635l8.316 23.524c2.004 5.672 6.958 9.658 12.927 10.403.667.083 1.331.124 1.99.124.791 0 1.572-.066 2.341-.181l3.747 44.965h-49.833c-.431 0-.783-.352-.783-.783zm65.667.783-4.732-56.783 14.398-21.596 14.398 21.597-4.732 56.782zm84.999-42.2v41.417c0 .432-.352.783-.783.783h-49.832l3.747-44.965c.769.115 1.55.181 2.34.181.659 0 1.324-.041 1.99-.124 5.969-.745 10.922-4.731 12.927-10.402l8.316-23.525c12.708 7.28 21.295 20.969 21.295 36.635z"/><path d="m289.133 139.131-49.249-49.248c-9.383-9.384-24.651-9.383-34.035-.001l-82.833 82.834c-4.546 4.545-7.05 10.589-7.05 17.018s2.503 12.473 7.05 17.018c4.546 4.546 10.589 7.049 17.017 7.049s12.471-2.504 17.017-7.049l65.816-65.816 49.249 49.249c9.384 9.383 24.651 9.383 34.035 0l48.735-48.736c.284-.281.738-.328.995-.096 4.585 4.134 10.512 6.324 16.694 6.174 12.936-.322 23.459-11.325 23.459-24.527v-32.667c0-13.271-10.796-24.066-24.066-24.066h-32.665c-13.203 0-24.206 10.523-24.527 23.459-.154 6.181 2.039 12.109 6.173 16.693.23.256.187.711-.096.993zm42.324-21.111c5.943-5.94 6.219-15.448.63-21.646-1.552-1.721-2.375-3.949-2.317-6.274.121-4.87 4.397-8.832 9.532-8.832h32.665c4.999 0 9.066 4.067 9.066 9.066v32.666c0 5.135-3.962 9.41-8.831 9.531-2.318.073-4.555-.766-6.276-2.317-6.196-5.588-15.703-5.312-21.646.628l-48.736 48.736c-3.535 3.535-9.287 3.535-12.822 0l-54.552-54.552c-2.929-2.928-7.678-2.928-10.606 0l-71.119 71.118c-1.713 1.713-3.989 2.656-6.411 2.656s-4.698-.943-6.412-2.656c-1.712-1.712-2.655-3.988-2.655-6.41s.943-4.698 2.656-6.41l82.833-82.834c1.768-1.768 4.089-2.651 6.411-2.651 2.321 0 4.643.884 6.41 2.651l54.553 54.552c2.929 2.928 7.678 2.928 10.606 0z"/><path d="m132.033 66.267h-33.7c-8.547 0-15.5 6.953-15.5 15.5v17.133c0 8.547 6.953 15.5 15.5 15.5h33.7c8.547 0 15.5-6.953 15.5-15.5v-17.133c0-8.547-6.953-15.5-15.5-15.5zm.5 32.633c0 .275-.224.5-.5.5h-33.7c-.276 0-.5-.225-.5-.5v-17.133c0-.275.224-.5.5-.5h33.7c.276 0 .5.225.5.5z"/><path d="m73.767 350.475c4.142 0 7.5-3.357 7.5-7.5v-4.142c0-4.143-3.358-7.5-7.5-7.5s-7.5 3.357-7.5 7.5v4.142c0 4.142 3.357 7.5 7.5 7.5z"/><path d="m106.9 350.475c4.142 0 7.5-3.357 7.5-7.5v-4.142c0-4.143-3.358-7.5-7.5-7.5s-7.5 3.357-7.5 7.5v4.142c0 4.142 3.358 7.5 7.5 7.5z"/><path d="m477.81 385.882c.673-1.752 1.057-3.646 1.057-5.632v-41.254c0-.018-.003-.035-.003-.053 0-.037.003-.073.003-.11v-27.532c4.929-2.673 8.283-7.894 8.283-13.884v-24.851c0-9.227-3.096-17.74-8.297-24.569.004-.094.014-.186.014-.281v-199.583h1.066c8.547 0 15.5-6.953 15.5-15.5v-17.133c0-8.547-6.953-15.5-15.5-15.5h-447.866c-8.547 0-15.5 6.953-15.5 15.5v17.133c0 8.547 6.953 15.5 15.5 15.5h1.066v43.767c0 4.143 3.358 7.5 7.5 7.5s7.5-3.357 7.5-7.5v-43.767h415.733v187.7c-5.265-2.497-11.146-3.9-17.35-3.9h-49.7c-22.406 0-40.634 18.228-40.634 40.633v24.851c0 5.99 3.355 11.211 8.284 13.884v26.715c0 16.977 7.349 32.36 18.978 43.018h-151.088c-4.142 0-7.5 3.357-7.5 7.5s3.358 7.5 7.5 7.5h117.609c-11.442 10.466-18.631 25.508-18.631 42.2v49.7c0 13.271 10.796 24.066 24.066 24.066h132.533c13.271 0 24.067-10.796 24.067-24.066v-49.7c0-23.358-14.079-43.477-34.19-52.352zm-446.243-353.249v-17.133c0-.275.224-.5.5-.5h447.866c.276 0 .5.225.5.5v17.133c0 .275-.224.5-.5.5h-447.866c-.276 0-.5-.225-.5-.5zm356.966 363.4h19.12l-16.176 24.264c-.087.132-.269.406-.749.343-.48-.06-.589-.368-.641-.517l-8.321-23.54c2.204-.357 4.463-.55 6.767-.55zm22.891 49.7h20.486l6.536 38.131c.006.268-.123.519-.349.669l-15.997 10.664c-.264.174-.604.175-.868-.001l-15.994-10.662c-.227-.151-.357-.402-.351-.67zm21.404-15h-22.322l-2.653-7.959 13.814-20.721 13.814 20.721zm2.852-34.7h19.12c2.304 0 4.563.193 6.768.55l-8.321 23.54c-.052.149-.161.456-.642.517-.48.06-.662-.212-.749-.343zm28.187-15.783c0 .432-.352.783-.784.783h-2.821c.508-.465 1.016-.93 1.51-1.415.72-.708 1.417-1.434 2.095-2.173zm-92.684-107.684c0-14.134 11.499-25.633 25.634-25.633h49.7c14.134 0 25.633 11.499 25.633 25.633v24.851c0 .432-.352.783-.783.783-12.145 0-22.71-8.621-25.121-20.5-1.486-7.32-7.987-12.634-15.458-12.634h-18.244c-7.471 0-13.972 5.314-15.458 12.634-2.411 11.879-12.976 20.5-25.121 20.5-.432 0-.784-.352-.784-.783v-24.851zm8.284 65.45v-25.524c15.962-3.016 29.004-15.465 32.321-31.807.073-.358.391-.618.757-.618h18.244c.366 0 .685.26.757.617 3.317 16.343 16.358 28.792 32.321 31.808v26.341c0 11.405-4.479 22.092-12.612 30.09-8.131 7.998-18.886 12.298-30.312 12.104-22.87-.381-41.476-19.676-41.476-43.011zm-33.134 149.918v-49.7c0-15.666 8.587-29.355 21.295-36.635l8.316 23.524c2.004 5.672 6.958 9.657 12.927 10.402.667.083 1.331.124 1.99.124 1.788 0 3.533-.308 5.177-.881l1.351 4.054-7.33 42.765c-.02.112-.036.225-.05.337-.745 5.962 1.893 11.735 6.887 15.077h-41.496c-4.999-.001-9.067-4.068-9.067-9.067zm150.667 0c0 4.999-4.067 9.066-9.067 9.066h-41.496c4.993-3.341 7.632-9.115 6.887-15.077-.014-.112-.031-.225-.05-.337l-7.33-42.765 1.351-4.054c1.644.573 3.389.881 5.178.881.659 0 1.323-.041 1.99-.124 5.969-.745 10.922-4.73 12.927-10.401l8.316-23.525c12.708 7.28 21.295 20.969 21.295 36.635v49.701z"/><path d="m405.1 333.908c4.142 0 7.5-3.357 7.5-7.5v-4.142c0-4.143-3.358-7.5-7.5-7.5s-7.5 3.357-7.5 7.5v4.142c0 4.143 3.358 7.5 7.5 7.5z"/><path d="m438.233 333.908c4.142 0 7.5-3.357 7.5-7.5v-4.142c0-4.143-3.358-7.5-7.5-7.5s-7.5 3.357-7.5 7.5v4.142c0 4.143 3.358 7.5 7.5 7.5z"/><path d="m197.733 296.585h33.7c8.547 0 15.5-6.953 15.5-15.5v-17.133c0-8.547-6.953-15.5-15.5-15.5h-33.7c-8.547 0-15.5 6.953-15.5 15.5v17.133c0 8.547 6.953 15.5 15.5 15.5zm-.5-32.633c0-.275.224-.5.5-.5h33.7c.276 0 .5.225.5.5v17.133c0 .275-.224.5-.5.5h-33.7c-.276 0-.5-.225-.5-.5z"/><path d="m182.233 347.448c0 8.547 6.953 15.5 15.5 15.5h99.967c8.547 0 15.5-6.953 15.5-15.5v-17.134c0-8.547-6.953-15.5-15.5-15.5h-99.967c-8.547 0-15.5 6.953-15.5 15.5zm15-17.133c0-.275.224-.5.5-.5h99.967c.276 0 .5.225.5.5v17.134c0 .275-.224.5-.5.5h-99.967c-.276 0-.5-.225-.5-.5z"/></g></g></svg>